<svg width="512" height="512" viewBox="0 0 512 512" xmlns="http://www.w3.org/2000/svg">
    <defs>
        <!-- التدرج اللوني الأساسي -->
        <linearGradient id="mainGradient" x1="0%" y1="0%" x2="100%" y2="100%">
            <stop offset="0%" style="stop-color:#667eea"/>
            <stop offset="100%" style="stop-color:#764ba2"/>
        </linearGradient>
        
        <!-- التدرج اللوني الذهبي -->
        <linearGradient id="goldGradient" x1="0%" y1="0%" x2="100%" y2="100%">
            <stop offset="0%" style="stop-color:#ffd89b"/>
            <stop offset="100%" style="stop-color:#19547b"/>
        </linearGradient>
        
        <!-- ظل للكتاب -->
        <filter id="bookShadow" x="-50%" y="-50%" width="200%" height="200%">
            <feDropShadow dx="0" dy="4" stdDeviation="8" flood-color="rgba(0,0,0,0.3)"/>
        </filter>
        
        <!-- توهج للنجمة -->
        <filter id="starGlow" x="-50%" y="-50%" width="200%" height="200%">
            <feGaussianBlur stdDeviation="3"/>
            <feColorMatrix values="1 0 0 0 1  0 1 0 0 0.84  0 0 1 0 0.61  0 0 0 1 0"/>
        </filter>
    </defs>
    
    <!-- الخلفية الرئيسية مع حواف مستديرة -->
    <rect width="512" height="512" rx="80" ry="80" fill="url(#mainGradient)"/>
    
    <!-- ظل خفيف للخلفية -->
    <rect width="512" height="512" rx="80" ry="80" fill="rgba(0,0,0,0.1)" opacity="0.3"/>
    
    <!-- الكتاب المفتوح - الجزء الأيسر -->
    <path d="M 120 150 
             Q 120 140 130 140
             L 250 125
             Q 256 124 256 130
             L 256 350
             Q 256 356 250 355
             L 130 370
             Q 120 371 120 361
             Z" 
          fill="white" 
          opacity="0.95" 
          filter="url(#bookShadow)"/>
    
    <!-- الكتاب المفتوح - الجزء الأيمن -->
    <path d="M 256 130
             Q 256 124 262 125
             L 382 140
             Q 392 140 392 150
             L 392 361
             Q 392 371 382 370
             L 262 355
             Q 256 356 256 350
             Z" 
          fill="white" 
          opacity="0.95" 
          filter="url(#bookShadow)"/>
    
    <!-- خط وسط الكتاب -->
    <line x1="256" y1="125" x2="256" y2="355" 
          stroke="url(#goldGradient)" 
          stroke-width="4" 
          opacity="0.8"/>
    
    <!-- خطوط النص - الصفحة اليسرى -->
    <g opacity="0.7">
        <line x1="150" y1="170" x2="235" y2="170" stroke="url(#mainGradient)" stroke-width="5" stroke-linecap="round"/>
        <line x1="150" y1="190" x2="225" y2="190" stroke="url(#mainGradient)" stroke-width="4" stroke-linecap="round" opacity="0.8"/>
        <line x1="150" y1="210" x2="235" y2="210" stroke="url(#mainGradient)" stroke-width="4" stroke-linecap="round" opacity="0.8"/>
        <line x1="150" y1="230" x2="215" y2="230" stroke="url(#mainGradient)" stroke-width="3" stroke-linecap="round" opacity="0.6"/>
        <line x1="150" y1="250" x2="230" y2="250" stroke="url(#mainGradient)" stroke-width="3" stroke-linecap="round" opacity="0.6"/>
    </g>
    
    <!-- خطوط النص - الصفحة اليمنى -->
    <g opacity="0.7">
        <line x1="277" y1="170" x2="362" y2="170" stroke="url(#mainGradient)" stroke-width="5" stroke-linecap="round"/>
        <line x1="287" y1="190" x2="362" y2="190" stroke="url(#mainGradient)" stroke-width="4" stroke-linecap="round" opacity="0.8"/>
        <line x1="277" y1="210" x2="352" y2="210" stroke="url(#mainGradient)" stroke-width="4" stroke-linecap="round" opacity="0.8"/>
        <line x1="297" y1="230" x2="362" y2="230" stroke="url(#mainGradient)" stroke-width="3" stroke-linecap="round" opacity="0.6"/>
        <line x1="277" y1="250" x2="342" y2="250" stroke="url(#mainGradient)" stroke-width="3" stroke-linecap="round" opacity="0.6"/>
    </g>
    
    <!-- نجمة التميز مع توهج -->
    <g filter="url(#starGlow)">
        <path d="M 256 280 
                 L 270 310 
                 L 304 310 
                 L 278 332 
                 L 288 366 
                 L 256 346 
                 L 224 366 
                 L 234 332 
                 L 208 310 
                 L 242 310 
                 Z" 
              fill="url(#goldGradient)" 
              opacity="0.9"/>
    </g>
    
    <!-- نجمة التميز الأساسية -->
    <path d="M 256 280 
             L 270 310 
             L 304 310 
             L 278 332 
             L 288 366 
             L 256 346 
             L 224 366 
             L 234 332 
             L 208 310 
             L 242 310 
             Z" 
          fill="url(#goldGradient)" 
          opacity="1"/>
    
    <!-- نقاط تزيينية -->
    <circle cx="180" cy="320" r="6" fill="rgba(255,255,255,0.6)"/>
    <circle cx="332" cy="320" r="6" fill="rgba(255,255,255,0.6)"/>
    
    <!-- دائرة صغيرة في الأسفل -->
    <circle cx="256" cy="400" r="10" fill="rgba(255,255,255,0.7)"/>
    
    <!-- خط منحني تزيييني في الأسفل -->
    <path d="M 200 420 Q 256 435 312 420" 
          stroke="rgba(255,255,255,0.5)" 
          stroke-width="3" 
          fill="none" 
          stroke-linecap="round"/>
</svg>