<svg width="512" height="512" viewBox="0 0 512 512" xmlns="http://www.w3.org/2000/svg">
    <defs>
        <!-- التدرج الأساسي للشعار -->
        <linearGradient id="logoGradient" x1="0%" y1="0%" x2="100%" y2="100%">
            <stop offset="0%" style="stop-color:#667eea"/>
            <stop offset="50%" style="stop-color:#764ba2"/>
            <stop offset="100%" style="stop-color:#f093fb"/>
        </linearGradient>
        
        <!-- التدرج الذهبي -->
        <linearGradient id="goldGradient" x1="0%" y1="0%" x2="100%" y2="100%">
            <stop offset="0%" style="stop-color:#ffd89b"/>
            <stop offset="100%" style="stop-color:#19547b"/>
        </linearGradient>
        
        <!-- ظل للنص -->
        <filter id="textShadow" x="-50%" y="-50%" width="200%" height="200%">
            <feDropShadow dx="0" dy="4" stdDeviation="8" flood-color="rgba(0,0,0,0.3)"/>
        </filter>
        
        <!-- توهج للعناصر -->
        <filter id="glow" x="-50%" y="-50%" width="200%" height="200%">
            <feGaussianBlur stdDeviation="4"/>
            <feColorMatrix values="1 0 0 0 0  0 1 0 0 0.84  0 0 1 0 0.61  0 0 0 1 0"/>
        </filter>
    </defs>
    
    <!-- دائرة الخلفية -->
    <circle cx="256" cy="256" r="240" fill="url(#logoGradient)" opacity="0.1"/>
    
    <!-- الكتاب الرئيسي -->
    <g transform="translate(256, 200)">
        <!-- غلاف الكتاب الخلفي -->
        <rect x="-80" y="-60" width="160" height="120" rx="10" fill="url(#logoGradient)" opacity="0.8"/>
        
        <!-- صفحات الكتاب -->
        <rect x="-75" y="-55" width="150" height="110" rx="8" fill="white" opacity="0.95"/>
        
        <!-- خط الوسط -->
        <line x1="0" y1="-55" x2="0" y2="55" stroke="url(#goldGradient)" stroke-width="3"/>
        
        <!-- خطوط النص -->
        <g opacity="0.6">
            <line x1="-60" y1="-30" x2="0" y2="-30" stroke="url(#logoGradient)" stroke-width="3" stroke-linecap="round"/>
            <line x1="-50" y1="-15" x2="-10" y2="-15" stroke="url(#logoGradient)" stroke-width="2" stroke-linecap="round"/>
            <line x1="-65" y1="0" x2="-5" y2="0" stroke="url(#logoGradient)" stroke-width="2" stroke-linecap="round"/>
            
            <line x1="10" y1="-30" x2="60" y2="-30" stroke="url(#logoGradient)" stroke-width="3" stroke-linecap="round"/>
            <line x1="15" y1="-15" x2="55" y2="-15" stroke="url(#logoGradient)" stroke-width="2" stroke-linecap="round"/>
            <line x1="5" y1="0" x2="65" y2="0" stroke="url(#logoGradient)" stroke-width="2" stroke-linecap="round"/>
        </g>
        
        <!-- نجمة التميز -->
        <g transform="translate(0, 25)">
            <path d="M 0 -15 L 4.5 -4.5 L 15 -4.5 L 7.5 3 L 12 15 L 0 9 L -12 15 L -7.5 3 L -15 -4.5 L -4.5 -4.5 Z" 
                  fill="url(#goldGradient)" 
                  filter="url(#glow)"/>
        </g>
    </g>
    
    <!-- العنوان "المتميزون" -->
    <g transform="translate(256, 320)">
        <text x="0" y="0" 
              font-family="Cairo, Arial, sans-serif" 
              font-size="48" 
              font-weight="800" 
              text-anchor="middle" 
              fill="url(#logoGradient)"
              filter="url(#textShadow)">
            المتميزون
        </text>
    </g>
    
    <!-- الشعار الفرعي -->
    <g transform="translate(256, 360)">
        <text x="0" y="0" 
              font-family="Cairo, Arial, sans-serif" 
              font-size="18" 
              font-weight="600" 
              text-anchor="middle" 
              fill="#666" 
              opacity="0.8">
            منصتك التعليمية المجانية
        </text>
    </g>
    
    <!-- عناصر تزيينية -->
    <g opacity="0.3">
        <circle cx="120" cy="120" r="8" fill="url(#goldGradient)"/>
        <circle cx="392" cy="120" r="6" fill="url(#goldGradient)"/>
        <circle cx="120" cy="392" r="10" fill="url(#goldGradient)"/>
        <circle cx="392" cy="392" r="7" fill="url(#goldGradient)"/>
    </g>
    
    <!-- خطوط تزيينية -->
    <g opacity="0.2">
        <path d="M 80 80 Q 256 60 432 80" stroke="url(#logoGradient)" stroke-width="2" fill="none"/>
        <path d="M 80 432 Q 256 452 432 432" stroke="url(#logoGradient)" stroke-width="2" fill="none"/>
    </g>
</svg>