<svg width="32" height="32" viewBox="0 0 32 32" xmlns="http://www.w3.org/2000/svg">
    <defs>
        <linearGradient id="bg" x1="0%" y1="0%" x2="100%" y2="100%">
            <stop offset="0%" style="stop-color:#667eea"/>
            <stop offset="100%" style="stop-color:#764ba2"/>
        </linearGradient>
        <linearGradient id="star" x1="0%" y1="0%" x2="100%" y2="100%">
            <stop offset="0%" style="stop-color:#ffd89b"/>
            <stop offset="100%" style="stop-color:#19547b"/>
        </linearGradient>
    </defs>
    
    <!-- الخلفية -->
    <rect width="32" height="32" rx="5" fill="url(#bg)"/>
    
    <!-- الكتاب المبسط -->
    <rect x="7" y="9" width="8" height="12" rx="1" fill="white" opacity="0.9"/>
    <rect x="17" y="9" width="8" height="12" rx="1" fill="white" opacity="0.9"/>
    
    <!-- خط الوسط -->
    <line x1="16" y1="9" x2="16" y2="21" stroke="url(#star)" stroke-width="1"/>
    
    <!-- خطوط النص -->
    <line x1="9" y1="12" x2="14" y2="12" stroke="url(#bg)" stroke-width="1" opacity="0.7"/>
    <line x1="9" y1="14" x2="13" y2="14" stroke="url(#bg)" stroke-width="1" opacity="0.6"/>
    <line x1="18" y1="12" x2="23" y2="12" stroke="url(#bg)" stroke-width="1" opacity="0.7"/>
    <line x1="19" y1="14" x2="23" y2="14" stroke="url(#bg)" stroke-width="1" opacity="0.6"/>
    
    <!-- نجمة صغيرة -->
    <path d="M16 17 L17 19 L19 19 L17.5 20.5 L18 22 L16 21 L14 22 L14.5 20.5 L13 19 L15 19 Z" 
          fill="url(#star)" opacity="0.8"/>
    
    <!-- نقطة تزيينية -->
    <circle cx="16" cy="26" r="1" fill="white" opacity="0.6"/>
</svg>